<?xml version="1.0" encoding="utf-8"?>
<!-- Generator: Adobe Illustrator 25.3.1, SVG Export Plug-In . SVG Version: 6.00 Build 0)  -->
<svg version="1.1" id="Capa_1" xmlns="http://www.w3.org/2000/svg" xmlns:xlink="http://www.w3.org/1999/xlink" x="0px" y="0px"
	 viewBox="0 0 233.23 75.02" style="enable-background:new 0 0 233.23 75.02;" xml:space="preserve">
<style type="text/css">
	.st0{fill:#8C734B;}
</style>
<g>
	<path class="st0" d="M112.92,5.29h7.3v6.14L148.29,0l32.77,13.34l-1.04,2.55L148.29,2.97l-31.73,12.91L84.82,2.97L53.09,15.89
		l-1.04-2.55L84.82,0l28.1,11.44V5.29z M149.23,10.63c0.02-0.99,0.82-1.78,1.82-1.78s1.8,0.79,1.81,1.78l0.04,4.52h-3.65
		L149.23,10.63z M144.07,10.63c0.02-0.99,0.82-1.78,1.82-1.78c0.99,0,1.8,0.79,1.81,1.78l0.03,4.52h-3.65L144.07,10.63z
		 M85.43,10.63c0.02-0.99,0.82-1.78,1.81-1.78c0.99,0,1.8,0.79,1.81,1.78l0.03,4.52h-3.65L85.43,10.63z M80.27,10.63
		c0.02-0.99,0.82-1.78,1.81-1.78c0.99,0,1.8,0.79,1.82,1.78l0.03,4.52h-3.65L80.27,10.63z"/>
	<path class="st0" d="M14.58,44.66h2.99c-0.3,1.7-1.52,5.83-8.54,5.83c-4.84,0-8.65-2.69-8.65-8.27c0-4.46,2.8-7.78,8.88-7.78
		c6.84,0,7.85,4.44,8.08,5.26h-2.99C14.18,39.17,13,37,9.42,37c-4.23,0-6,2.38-6,5.55c0,3.51,2.55,5.36,5.83,5.36
		C12.75,47.92,14.29,45.83,14.58,44.66 M36.94,44.03h6.4l-3.2-6.82L36.94,44.03z M30.91,50.11l7.53-15.3h3.41l7.43,15.3h-3.16
		l-1.6-3.51H35.7l-1.62,3.51H30.91z M78.33,38.54l-2.82,0.93c-0.48-1.37-1.72-2.55-5.36-2.55c-2.02,0-4.06,0.5-4.06,1.91
		c0,0.65,0.38,1.35,3.43,1.73l3.62,0.55c3.43,0.53,5.45,1.85,5.45,4.42c0,3.62-3.45,4.97-7.53,4.97c-6.56,0-8.16-3.24-8.52-4.4
		l2.88-0.9c0.55,1.11,1.68,2.73,5.72,2.73c2.44,0,4.46-0.8,4.46-2.12c0-0.99-1.13-1.64-3.32-1.92l-3.66-0.5
		c-3.54-0.48-5.51-2.02-5.51-4.36c0-4.59,5.95-4.59,7.13-4.59C76.81,34.43,77.95,37.48,78.33,38.54 M97.87,44.03h6.39l-3.2-6.82
		L97.87,44.03z M91.83,50.11l7.53-15.3h3.41l7.43,15.3h-3.16l-1.6-3.51h-8.82L95,50.11H91.83z M127.51,41.61h5.76
		c2.44,0,3.68-0.36,3.68-2.17c0-1.79-1.24-2.15-3.68-2.15h-5.76V41.61z M124.52,50.11v-15.3h9.19c3.62,0,6.23,0.82,6.23,4.57
		c0,2.82-2.02,4.38-4.27,4.5l4.69,6.23h-3.68l-4.44-6.02h-4.73v6.02H124.52z M155.57,50.11v-15.3h13.72v2.57h-10.73v3.55h9.24v2.57
		h-9.24v4.04h10.98v2.57H155.57z M184.29,50.11v-15.3h3.15l10.23,11.05V34.81h2.86v15.3h-2.74l-10.65-11.44v11.44H184.29z
		 M220.9,44.03h6.4l-3.2-6.82L220.9,44.03z M214.86,50.11l7.53-15.3h3.41l7.43,15.3h-3.16l-1.6-3.51h-8.81l-1.62,3.51H214.86z"/>
	<g>
		<path class="st0" d="M25.08,68.94h3.66c1.43,0,2.38,0.4,2.38,1.56c0,0.77-0.38,1.05-0.7,1.26c0.43,0.18,0.94,0.7,0.94,1.5
			c0,1.15-0.91,1.76-2.39,1.76h-3.89V68.94z M28.82,71.34c0.78,0,1.12-0.19,1.12-0.7c0-0.52-0.34-0.71-1.12-0.71h-2.55v1.41H28.82z
			 M28.85,74.04c0.75,0,1.32-0.15,1.32-0.87c0-0.64-0.52-0.84-1.32-0.84h-2.58v1.71H28.85z"/>
		<path class="st0" d="M40.1,68.79c2.68,0,3.62,1.57,3.62,3.24c0,1.26-0.74,3.14-3.62,3.14c-2.88,0-3.62-1.88-3.62-3.14
			C36.48,70.36,37.42,68.79,40.1,68.79z M42.53,71.96c0-1.46-1.04-2.15-2.43-2.15c-1.39,0-2.43,0.69-2.43,2.15
			c0,1.72,1.29,2.19,2.43,2.19C41.24,74.15,42.53,73.68,42.53,71.96z"/>
		<path class="st0" d="M49.12,68.94h2.93c1.92,0,3.46,0.81,3.46,3c0,2.07-1.4,3.08-3.41,3.08h-2.98V68.94z M51.51,74
			c2.02,0,2.81-0.62,2.81-2.04c0-1.49-0.82-2-2.81-2h-1.21V74H51.51z"/>
		<path class="st0" d="M60.91,68.94h5.45v1.02H62.1v1.41h3.67v1.02H62.1V74h4.37v1.02h-5.55V68.94z"/>
		<path class="st0" d="M78.04,71.9v3.19h-0.72l-0.23-0.63c-0.46,0.3-1.1,0.71-2.28,0.71c-1.55,0-3.44-0.76-3.44-3.18
			c0-1.62,0.98-3.2,3.4-3.2c1.4,0,2.93,0.52,3.22,2.05h-1.21c-0.14-0.31-0.47-1.03-1.87-1.03c-1.91,0-2.36,1.29-2.36,2.13
			c0,1.44,0.97,2.17,2.26,2.17c1.17,0,1.82-0.41,2.11-1.26H74.8V71.9H78.04z"/>
		<path class="st0" d="M85.9,68.94h1.35l2.95,6.08h-1.25l-0.63-1.4h-3.5l-0.64,1.4h-1.26L85.9,68.94z M87.85,72.6l-1.27-2.71
			l-1.27,2.71H87.85z"/>
		<path class="st0" d="M100.08,70.79c-0.19-0.54-0.69-1.01-2.13-1.01c-0.8,0-1.61,0.2-1.61,0.76c0,0.26,0.15,0.54,1.36,0.69
			l1.44,0.22c1.36,0.21,2.17,0.74,2.17,1.76c0,1.44-1.37,1.97-2.99,1.97c-2.61,0-3.24-1.29-3.39-1.75l1.15-0.36
			c0.22,0.44,0.67,1.09,2.28,1.09c0.97,0,1.77-0.32,1.77-0.84c0-0.39-0.45-0.65-1.32-0.76l-1.46-0.2c-1.4-0.19-2.19-0.8-2.19-1.73
			c0-1.82,2.37-1.82,2.83-1.82c2.62,0,3.07,1.21,3.22,1.63L100.08,70.79z"/>
		<path class="st0" d="M116.13,72.59l-2.97-3.65h1.46l2.11,2.58l2.1-2.58h1.46l-2.97,3.65v2.43h-1.19V72.59z"/>
		<path class="st0" d="M132,68.94h1.27l2.28,4.85l2.33-4.85h1.27l-2.98,6.08h-1.24L132,68.94z"/>
		<path class="st0" d="M144.44,68.94h1.19v6.08h-1.19V68.94z"/>
		<path class="st0" d="M151.49,68.94h1.25l4.06,4.39v-4.39h1.14v6.08h-1.09l-4.23-4.55v4.55h-1.14V68.94z M156.08,67.42
			c0,0.16-0.12,0.96-0.86,0.96c-0.19,0-0.4-0.08-0.59-0.16c-0.19-0.08-0.37-0.15-0.5-0.15c-0.21,0-0.29,0.21-0.29,0.37h-0.48
			c0-0.25,0.07-0.49,0.22-0.68c0.15-0.18,0.37-0.29,0.64-0.29c0.18,0,0.38,0.08,0.55,0.16c0.17,0.08,0.34,0.17,0.47,0.17
			c0.35,0,0.35-0.25,0.35-0.38H156.08z"/>
		<path class="st0" d="M163.74,68.94h5.45v1.02h-4.26v1.41h3.67v1.02h-3.67V74h4.37v1.02h-5.55V68.94z"/>
		<path class="st0" d="M174.6,68.94h2.93c1.92,0,3.46,0.81,3.46,3c0,2.07-1.4,3.08-3.41,3.08h-2.98V68.94z M176.99,74
			c2.02,0,2.81-0.62,2.81-2.04c0-1.49-0.82-2-2.81-2h-1.21V74H176.99z"/>
		<path class="st0" d="M189.62,68.79c2.68,0,3.62,1.57,3.62,3.24c0,1.26-0.74,3.14-3.62,3.14c-2.88,0-3.62-1.88-3.62-3.14
			C186,70.36,186.94,68.79,189.62,68.79z M192.05,71.96c0-1.46-1.04-2.15-2.43-2.15c-1.39,0-2.43,0.69-2.43,2.15
			c0,1.72,1.3,2.19,2.43,2.19C190.75,74.15,192.05,73.68,192.05,71.96z"/>
		<path class="st0" d="M203.37,70.79c-0.19-0.54-0.69-1.01-2.13-1.01c-0.8,0-1.62,0.2-1.62,0.76c0,0.26,0.15,0.54,1.36,0.69
			l1.44,0.22c1.36,0.21,2.17,0.74,2.17,1.76c0,1.44-1.37,1.97-2.99,1.97c-2.61,0-3.25-1.29-3.39-1.75l1.14-0.36
			c0.22,0.44,0.67,1.09,2.28,1.09c0.97,0,1.77-0.32,1.77-0.84c0-0.39-0.45-0.65-1.32-0.76l-1.46-0.2c-1.4-0.19-2.19-0.8-2.19-1.73
			c0-1.82,2.37-1.82,2.84-1.82c2.62,0,3.07,1.21,3.22,1.63L203.37,70.79z"/>
	</g>
</g>
</svg>
